# xmcd CD database file
#
# Track frame offsets:
#	150
#	40791
#	57721
#	99845
#	133452
#	145899
#	187109
#	209197
#
# Disc length: 3156 seconds
#
# Revision: 0
# Processed by: cddbd v1.5.2PL0 Copyright (c) Steve Scherf et al.
# Submitted via: CDex 1.70beta2
#
DISCID=840c5208
DTITLE=Satoko Fujii - Natsuki Tamura - in Krakow in November
DYEAR=2006
DGENRE=Jazz
TTITLE0=Strange Village
TTITLE1=A Borth Wind
TTITLE2=Morning Mist
TTITLE3=Ninepin
TTITLE4=A Holothurian
TTITLE5=In Krakow, In November
TTITLE6=Explorer
TTITLE7=Inori
EXTD=YEAR: 2006
EXTT0=
EXTT1=
EXTT2=
EXTT3=
EXTT4=
EXTT5=
EXTT6=
EXTT7=
PLAYORDER=
